# xmcd
#
# Track frame offsets:
#	150
#	19940
#	35017
#	51180
#	70419
#	88085
#	110474
#	126903
#	140986
#
# Disc length: 2016 seconds
#
# Revision: 0
# Processed by: cddbd v1.5.2PL0 Copyright (c) Steve Scherf et al.
# Submitted via: dBpowerAMP V4.0
#
DISCID=8907de09
DTITLE=Alexa Woodward - Speck
DYEAR=2009
DGENRE=Banjo
TTITLE0=Spoon
TTITLE1=Jimmy
TTITLE2=Speck
TTITLE3=Window
TTITLE4=Boston
TTITLE5=Mary
TTITLE6=Hours
TTITLE7=Plants
TTITLE8=No Telling
EXTD=
EXTT0=
EXTT1=
EXTT2=
EXTT3=
EXTT4=
EXTT5=
EXTT6=
EXTT7=
EXTT8=
PLAYORDER=
